 <svg  version="1.0" xmlns="http://www.w3.org/2000/svg"  width="192.000000pt" height="192.000000pt" viewBox="0 0 192.000000 192.000000"  preserveAspectRatio="xMidYMid meet">  <g transform="translate(0.000000,192.000000) scale(0.050000,-0.050000)" fill="#1a120c" stroke="none"> <path d="M1640 3807 c-1887 -357 -2238 -2881 -515 -3697 296 -140 315 -131 315 159 l0 201 -187 0 c-248 0 -348 55 -453 251 -101 187 -136 233 -212 280 -123 76 -70 144 78 100 81 -25 153 -89 284 -252 156 -197 467 -200 523 -7 15 51 40 104 57 118 50 41 35 55 -85 76 -177 32 -339 100 -450 191 -321 263 -393 900 -137 1225 31 40 35 62 20 114 -38 134 -2 426 56 448 55 21 238 -35 377 -116 134 -78 140 -80 228 -57 158 41 513 47 696 13 l165 -32 168 90 c105 56 206 94 268 101 l99 12 25 -105 c16 -65 21 -167 15 -263 -11 -153 -9 -162 55 -268 93 -155 118 -276 105 -517 -26 -479 -266 -752 -738 -835 l-112 -20 52 -94 c51 -90 53 -105 60 -479 l6 -386 49 -22 c121 -56 578 212 849 499 1008 1065 530 2815 -882 3226 -146 43 -644 72 -779 46z"/> </g> </svg> 