<?xml version="1.0" standalone="no"?>
<!DOCTYPE svg PUBLIC "-//W3C//DTD SVG 20010904//EN"
 "http://www.w3.org/TR/2001/REC-SVG-20010904/DTD/svg10.dtd">
<svg version="1.0" xmlns="http://www.w3.org/2000/svg"
 width="1350.000000pt" height="420.000000pt" viewBox="0 0 1350.000000 420.000000"
 preserveAspectRatio="xMidYMid meet">
<metadata>
Created by potrace 1.10, written by Peter Selinger 2001-2011
</metadata>
<g transform="translate(0.000000,420.000000) scale(0.100000,-0.100000)"
fill="#ffffff" stroke="none">
<path d="M4095 2738 c-3 -7 -6 -65 -7 -128 l-3 -115 -649 -3 c-470 -1 -653 -5
-663 -14 -10 -8 -13 -39 -12 -126 1 -87 -2 -117 -12 -123 -8 -5 -245 -9 -526
-9 l-513 0 -5 -22 c-3 -13 -6 -70 -8 -128 l-2 -105 -125 -5 -125 -5 0 -260 0
-260 130 0 130 0 5 125 5 125 125 5 125 5 3 122 c2 85 7 124 16 132 8 7 139
12 397 13 l384 3 5 125 5 125 650 3 c597 2 651 3 663 19 8 11 12 55 12 130 l0
113 258 -2 257 -3 5 -125 5 -125 125 -5 125 -5 5 -125 5 -125 122 -3 c83 -2
124 -7 132 -15 6 -7 12 -67 13 -133 l3 -119 126 -3 c150 -3 139 9 139 -154 l0
-108 925 0 925 0 0 108 c0 163 -8 152 125 152 85 0 117 4 128 14 10 11 14 42
14 120 0 70 5 111 13 121 10 12 37 15 125 15 94 0 114 3 119 16 3 9 6 65 6
125 0 128 -12 118 150 122 l105 2 5 125 5 125 263 3 c206 2 262 0 263 -10 0
-7 0 -57 -1 -110 -2 -140 -4 -138 134 -138 81 0 117 -4 124 -13 6 -7 13 -64
14 -128 l3 -114 114 -3 c64 -1 121 -8 128 -14 9 -7 13 -43 13 -128 0 -98 3
-119 16 -124 9 -3 67 -6 130 -6 l113 0 3 -127 3 -128 928 -3 927 -2 0 117 c0
65 4 123 8 130 5 8 48 13 132 15 l125 3 3 119 c1 67 7 126 14 133 7 9 43 13
129 13 139 0 128 -13 132 150 l2 105 125 5 125 5 0 260 0 260 -3968 3 c-3169
2 -3969 0 -3972 -10z m6781 -258 l95 0 -3 -127 -3 -128 -111 -3 c-146 -4 -144
-6 -144 139 0 104 1 110 23 119 12 5 28 7 35 4 8 -2 56 -4 108 -4z m-3868
-116 c4 -148 6 -145 -147 -142 l-116 3 -3 128 -3 128 133 -3 133 -3 3 -111z
m520 -3 c2 -75 -1 -118 -9 -127 -8 -10 -39 -14 -120 -14 -97 0 -109 2 -119 19
-11 22 -14 224 -3 235 4 3 61 5 127 4 l121 -3 3 -114z m3980 0 c2 -75 -1 -118
-9 -127 -14 -17 -209 -20 -240 -4 -17 10 -19 22 -19 124 0 62 3 116 7 120 4 3
63 5 132 4 l126 -3 3 -114z m-4773 -271 l0 -125 -119 -3 c-78 -2 -123 1 -132
9 -19 15 -20 219 -2 237 9 9 48 12 133 10 l120 -3 0 -125z m519 124 c13 -5 16
-26 16 -124 0 -98 -3 -119 -16 -124 -9 -3 -67 -6 -130 -6 l-114 0 0 130 0 130
114 0 c63 0 121 -3 130 -6z m3451 -124 l0 -125 -125 0 -125 0 -3 114 c-2 76 1
118 9 127 9 12 37 14 128 12 l116 -3 0 -125z m530 0 l0 -125 -125 0 -125 0 -3
114 c-1 63 0 121 2 128 4 11 33 13 128 11 l123 -3 0 -125z m-4767 -263 l3
-128 -128 3 -128 3 -3 115 c-3 145 -7 142 143 138 l110 -3 3 -128z m527 117
c13 -13 15 -36 13 -128 l-3 -111 -132 -3 -133 -3 0 124 c0 68 3 127 7 130 3 4
57 7 119 7 90 0 116 -3 129 -16z m3438 3 c15 -11 17 -28 15 -127 l-3 -115
-127 -3 -127 -3 -3 111 c-2 62 0 120 4 131 7 17 18 19 116 19 71 0 114 -4 125
-13z m535 -120 l3 -128 -128 3 -128 3 -3 111 c-4 148 -6 146 142 142 l111 -3
3 -128z"/>
<path d="M125 960 c3 -5 13 -10 21 -10 8 0 14 5 14 10 0 6 -9 10 -21 10 -11 0
-17 -4 -14 -10z"/>
<path d="M140 140 c0 -11 5 -20 10 -20 6 0 10 9 10 20 0 11 -4 20 -10 20 -5 0
-10 -9 -10 -20z"/>
</g>
</svg>
