 <svg  version="1.0" xmlns="http://www.w3.org/2000/svg"  width="192.000000pt" height="192.000000pt" viewBox="0 0 192.000000 192.000000"  preserveAspectRatio="xMidYMid meet">  <g transform="translate(0.000000,192.000000) scale(0.100000,-0.100000)" fill="#1a120c" stroke="none"> <path d="M793 1905 c-475 -86 -815 -512 -790 -990 10 -185 60 -338 157 -484 252 -376 732 -529 1149 -365 183 73 367 227 469 393 191 312 187 716 -10 1018 -67 104 -203 236 -307 301 -196 120 -445 168 -668 127z m-163 -480 c39 -20 60 -53 60 -92 0 -46 -14 -77 -45 -97 -32 -21 -111 -24 -143 -7 -44 23 -66 106 -41 152 27 51 112 73 169 44z m665 -296 c25 -7 58 -29 86 -58 71 -70 79 -108 79 -378 l0 -223 -105 0 -105 0 0 178 c-1 216 -8 257 -49 294 -35 31 -68 35 -115 13 -61 -29 -66 -50 -66 -279 l0 -206 -110 0 -110 0 0 325 0 325 110 0 110 0 0 -38 0 -39 38 37 c60 56 146 74 237 49z m-615 -334 l0 -325 -110 0 -110 0 0 325 0 325 110 0 110 0 0 -325z"/> </g> </svg> 