 <svg  version="1.0" xmlns="http://www.w3.org/2000/svg"  width="192.000000pt" height="192.000000pt" viewBox="0 0 192.000000 192.000000"  preserveAspectRatio="xMidYMid meet">  <g transform="translate(0.000000,192.000000) scale(0.050000,-0.050000)" fill="#1a120c" stroke="none"> <path d="M1587 3810 c-1542 -279 -2122 -2193 -992 -3273 1113 -1063 2952 -452 3218 1070 224 1283 -941 2437 -2226 2203z m578 -799 c581 -124 982 -745 847 -1316 -76 -324 -423 -446 -643 -226 l-51 51 -65 -49 c-450 -343 -1084 167 -846 679 266 570 1072 370 1073 -266 0 -373 261 -434 320 -75 130 798 -884 1321 -1477 763 -747 -704 79 -1888 1004 -1440 l77 37 68 -74 c89 -98 90 -97 -67 -171 -429 -201 -892 -134 -1233 179 -842 771 -127 2145 993 1908z"/> <path d="M1800 2238 c-220 -88 -284 -368 -124 -536 184 -193 489 -121 565 132 76 256 -193 502 -441 404z"/> </g> </svg> 